<svg width="57" height="55" viewBox="0 0 57 55" fill="none" xmlns="http://www.w3.org/2000/svg">
<rect width="55" height="55" rx="20" fill="black"/>
<path d="M16.36 28.06C16.7067 29.3133 17.6467 29.94 19.18 29.94C20.1667 29.94 20.9133 29.6067 21.42 28.94L23.5 30.14C22.5133 31.5667 21.06 32.28 19.14 32.28C17.4867 32.28 16.16 31.78 15.16 30.78C14.16 29.78 13.66 28.52 13.66 27C13.66 25.4933 14.1533 24.24 15.14 23.24C16.1267 22.2267 17.3933 21.72 18.94 21.72C20.4067 21.72 21.6133 22.2267 22.56 23.24C23.52 24.2533 24 25.5067 24 27C24 27.3333 23.9667 27.6867 23.9 28.06H16.36ZM16.32 26.06H21.42C21.2733 25.38 20.9667 24.8733 20.5 24.54C20.0467 24.2067 19.5267 24.04 18.94 24.04C18.2467 24.04 17.6733 24.22 17.22 24.58C16.7667 24.9267 16.4667 25.42 16.32 26.06ZM34.4547 32H31.4747L29.3147 28.96L27.1347 32H24.1547L27.8147 26.9L24.3147 22H27.2947L29.3147 24.82L31.3347 22H34.2947L30.7947 26.88L34.4547 32ZM41.5625 21.72C42.9092 21.72 44.0558 22.2333 45.0025 23.26C45.9625 24.2733 46.4425 25.52 46.4425 27C46.4425 28.48 45.9625 29.7333 45.0025 30.76C44.0558 31.7733 42.9092 32.28 41.5625 32.28C40.1625 32.28 39.0825 31.7933 38.3225 30.82V36H35.7425V22H38.3225V23.18C39.0825 22.2067 40.1625 21.72 41.5625 21.72ZM39.1025 29.04C39.6225 29.56 40.2825 29.82 41.0825 29.82C41.8825 29.82 42.5425 29.56 43.0625 29.04C43.5958 28.5067 43.8625 27.8267 43.8625 27C43.8625 26.1733 43.5958 25.5 43.0625 24.98C42.5425 24.4467 41.8825 24.18 41.0825 24.18C40.2825 24.18 39.6225 24.4467 39.1025 24.98C38.5825 25.5 38.3225 26.1733 38.3225 27C38.3225 27.8267 38.5825 28.5067 39.1025 29.04ZM50.1613 31.76C49.8279 32.0933 49.4279 32.26 48.9613 32.26C48.4946 32.26 48.0946 32.0933 47.7613 31.76C47.4279 31.4267 47.2613 31.0267 47.2613 30.56C47.2613 30.0933 47.4279 29.6933 47.7613 29.36C48.0946 29.0267 48.4946 28.86 48.9613 28.86C49.4279 28.86 49.8279 29.0267 50.1613 29.36C50.4946 29.6933 50.6613 30.0933 50.6613 30.56C50.6613 31.0267 50.4946 31.4267 50.1613 31.76Z" fill="white"/>
<path d="M6.21031 36.5123C5.54188 36.3332 5.1452 35.6461 5.3243 34.9777L7.70466 26.0941L10.085 17.2104C10.2641 16.542 10.9512 16.1453 11.6196 16.3244C12.2881 16.5035 12.6848 17.1906 12.5056 17.8591L7.74493 35.6263C7.56582 36.2947 6.87875 36.6914 6.21031 36.5123Z" fill="white"/>
</svg>
